<svg width="214" height="214" viewBox="0 0 214 214" fill="none" xmlns="http://www.w3.org/2000/svg">
<circle cx="107" cy="107" r="107" fill="#D5EBFC"/>
<path d="M143.667 124.808C143.383 125.093 143.047 125.318 142.676 125.473C142.305 125.627 141.908 125.706 141.506 125.706C141.105 125.706 140.707 125.627 140.336 125.473C139.966 125.318 139.629 125.093 139.346 124.808L135.025 120.487C134.741 120.204 134.515 119.868 134.361 119.497C134.206 119.126 134.127 118.728 134.127 118.327C134.127 117.925 134.206 117.528 134.361 117.157C134.515 116.786 134.741 116.45 135.025 116.167L143.667 107.526C144.24 106.953 145.017 106.631 145.827 106.631C146.637 106.631 147.414 106.953 147.987 107.526L152.308 111.846C152.592 112.129 152.818 112.466 152.973 112.837C153.127 113.207 153.206 113.605 153.206 114.006C153.206 114.408 153.127 114.805 152.973 115.176C152.818 115.547 152.592 115.884 152.308 116.167L143.667 124.808ZM97.8333 78.9745C97.5501 79.2592 97.2135 79.4851 96.8428 79.6393C96.4721 79.7935 96.0745 79.8729 95.673 79.8729C95.2715 79.8729 94.8739 79.7935 94.5031 79.6393C94.1324 79.4851 93.7958 79.2592 93.5127 78.9745L89.1921 74.6539C88.9074 74.3708 88.6815 74.0342 88.5273 73.6634C88.3731 73.2927 88.2937 72.8951 88.2937 72.4936C88.2937 72.0921 88.3731 71.6945 88.5273 71.3238C88.6815 70.9531 88.9074 70.6165 89.1921 70.3333L97.8333 61.6922C98.4063 61.1194 99.1833 60.7976 99.9935 60.7976C100.804 60.7976 101.581 61.1194 102.154 61.6922L106.474 66.0128C106.759 66.2959 106.985 66.6325 107.139 67.0032C107.293 67.374 107.373 67.7715 107.373 68.1731C107.373 68.5746 107.293 68.9722 107.139 69.3429C106.985 69.7136 106.759 70.0502 106.474 70.3333L97.8333 78.9745Z" fill="#66757F"/>
<path d="M58.1112 119.222C64.2223 119.222 91.7223 122.278 91.7223 122.278C91.7223 122.278 94.7779 149.778 94.7779 155.889C94.7779 162 88.6668 162 85.6112 158.944C82.5556 155.889 73.389 140.611 73.389 140.611C73.389 140.611 58.1112 131.444 55.0556 128.389C52.0001 125.333 52.0001 119.222 58.1112 119.222ZM64.2223 70.4525C73.389 70.3333 140.611 73.3889 140.611 73.3889C140.611 73.3889 143.435 140.611 143.551 149.778C143.667 158.944 135.108 162.006 131.75 149.781C128.392 137.556 116.167 97.8333 116.167 97.8333C116.167 97.8333 73.5265 84.3369 64.207 82.2439C52.0001 79.5 55.0526 70.5686 64.2223 70.4525Z" fill="#55ACEE"/>
<path d="M134.5 61.1667C140.611 55.0556 155.889 52 158.944 55.0556C162 58.1111 158.944 73.3889 152.833 79.5C146.722 85.6111 94.7778 134.5 94.7778 134.5C94.7778 134.5 74.9167 148.25 70.3333 143.667C65.75 139.083 79.5 119.222 79.5 119.222C79.5 119.222 128.389 67.2778 134.5 61.1667Z" fill="#CCD6DD"/>
<path d="M94.7778 119.222C94.7778 119.222 96.3056 120.75 82.5556 134.5C68.8056 148.25 67.2778 146.722 67.2778 146.722C67.2778 146.722 65.75 145.194 79.5 131.444C93.25 117.694 94.7778 119.222 94.7778 119.222ZM140.611 64.2222C143.042 64.2222 145.374 65.188 147.093 66.9071C148.812 68.6262 149.778 70.9577 149.778 73.3889H152.238C152.586 72.4264 152.833 71.418 152.833 70.3333C152.833 67.9022 151.868 65.5706 150.148 63.8515C148.429 62.1324 146.098 61.1667 143.667 61.1667C142.582 61.1667 141.574 61.4142 140.611 61.7625V64.2222Z" fill="#66757F"/>
</svg>
