<svg width="80" height="80" viewBox="0 0 80 80" fill="none" xmlns="http://www.w3.org/2000/svg">
<rect width="80" height="80" rx="40" fill="#CAE1FC"/>
<path d="M47.5 22.5C47.9641 22.5 48.4091 22.6845 48.7373 23.0127C49.0655 23.3409 49.25 23.7859 49.25 24.25V26H52.75C54.1424 26 55.4773 26.5535 56.4619 27.5381C57.4465 28.5227 58 29.8576 58 31.25V52.25C58 53.6424 57.4465 54.9773 56.4619 55.9619C55.4773 56.9465 54.1424 57.5 52.75 57.5H28.25C26.8576 57.5 25.5227 56.9465 24.5381 55.9619C23.5535 54.9773 23 53.6424 23 52.25V31.25C23 29.8576 23.5535 28.5227 24.5381 27.5381C25.5227 26.5535 26.8576 26 28.25 26H31.75V24.25C31.75 23.7859 31.9345 23.3409 32.2627 23.0127C32.5909 22.6845 33.0359 22.5 33.5 22.5C33.9641 22.5 34.4091 22.6845 34.7373 23.0127C35.0655 23.3409 35.25 23.7859 35.25 24.25V26H45.75V24.25C45.75 23.7859 45.9345 23.3409 46.2627 23.0127C46.5909 22.6845 47.0359 22.5 47.5 22.5ZM26.5 52.25C26.5 52.7141 26.6845 53.1591 27.0127 53.4873C27.3409 53.8155 27.7859 54 28.25 54H52.75C53.2141 54 53.6591 53.8155 53.9873 53.4873C54.3155 53.1591 54.5 52.7141 54.5 52.25V40H26.5V52.25ZM38 51.5H29V42.5H38V51.5Z" fill="#2158E8"/>
</svg>
