<svg width="350" height="50" viewBox="0 0 350 50" fill="none" xmlns="http://www.w3.org/2000/svg">
<rect x="0.5" y="0.5" width="349" height="49" rx="13.5" fill="white"/>
<rect x="0.5" y="0.5" width="349" height="49" rx="13.5" stroke="#E1E7EF"/>
<path opacity="0.987" fill-rule="evenodd" clip-rule="evenodd" d="M122.61 17.1933C123.426 17.1022 123.908 17.1022 124.785 17.1933C126.336 17.423 127.774 18.14 128.891 19.2408C128.136 19.9542 127.391 20.6781 126.657 21.4121C125.25 20.2196 123.679 19.9443 121.945 20.5863C120.673 21.1713 119.787 22.1193 119.288 23.4303C118.472 22.8227 117.666 22.2008 116.871 21.5651C116.816 21.536 116.753 21.5254 116.691 21.5347C117.954 19.101 119.926 17.6535 122.609 17.1922" fill="#F44336"/>
<path opacity="0.997" fill-rule="evenodd" clip-rule="evenodd" d="M116.69 21.5348C116.753 21.5251 116.814 21.5352 116.871 21.5652C117.665 22.2009 118.471 22.8228 119.287 23.4305C119.159 23.9413 119.078 24.4629 119.045 24.9886C119.073 25.4971 119.154 25.9962 119.287 26.486L116.75 28.5053C115.646 26.1968 115.625 23.8733 116.69 21.5348Z" fill="#FFC107"/>
<path opacity="0.999" fill-rule="evenodd" clip-rule="evenodd" d="M128.771 30.9506C127.981 30.254 127.154 29.6005 126.294 28.9931C127.156 28.3841 127.68 27.5486 127.864 26.4866H123.638V23.5515C126.075 23.5312 128.512 23.5518 130.947 23.6133C131.409 26.1221 130.875 28.3841 129.346 30.3993C129.164 30.5926 128.971 30.7766 128.771 30.9506Z" fill="#448AFF"/>
<path opacity="0.993" fill-rule="evenodd" clip-rule="evenodd" d="M119.287 26.4873C120.209 28.7801 121.901 29.8503 124.361 29.6981C125.051 29.6181 125.713 29.3769 126.293 28.9938C127.154 29.6028 127.98 30.2553 128.771 30.9513C127.518 32.0768 125.921 32.7446 124.24 32.8458C123.858 32.8763 123.475 32.8763 123.093 32.8458C120.229 32.5083 118.115 31.0616 116.75 28.5056L119.287 26.4873Z" fill="#43A047"/>
<path d="M150.439 22.8076C150.146 21.8115 149.341 21.1963 148.184 21.1963C146.543 21.1963 145.43 22.4561 145.43 24.6826C145.43 26.9238 146.514 28.1982 148.198 28.1982C149.714 28.1982 150.615 27.3413 150.645 26.001H148.345V24.3457H152.769V25.6641C152.769 28.4473 150.864 30.1465 148.184 30.1465C145.21 30.1465 143.188 28.0664 143.188 24.7119C143.188 21.2695 145.342 19.248 148.14 19.248C150.527 19.248 152.373 20.7129 152.666 22.8076H150.439ZM157.91 30.1611C155.508 30.1611 154.014 28.5059 154.014 26.0449C154.014 23.584 155.508 21.9434 157.91 21.9434C160.312 21.9434 161.821 23.584 161.821 26.0449C161.821 28.5059 160.312 30.1611 157.91 30.1611ZM157.925 28.4766C159.038 28.4766 159.609 27.4365 159.609 26.0449C159.609 24.6387 159.038 23.5986 157.925 23.5986C156.797 23.5986 156.211 24.6387 156.211 26.0449C156.211 27.4365 156.797 28.4766 157.925 28.4766ZM166.758 30.1611C164.355 30.1611 162.861 28.5059 162.861 26.0449C162.861 23.584 164.355 21.9434 166.758 21.9434C169.16 21.9434 170.669 23.584 170.669 26.0449C170.669 28.5059 169.16 30.1611 166.758 30.1611ZM166.772 28.4766C167.886 28.4766 168.457 27.4365 168.457 26.0449C168.457 24.6387 167.886 23.5986 166.772 23.5986C165.645 23.5986 165.059 24.6387 165.059 26.0449C165.059 27.4365 165.645 28.4766 166.772 28.4766ZM175.605 33.1494C173.408 33.1494 172.061 32.168 171.929 30.6592H174.067C174.185 31.2891 174.785 31.582 175.649 31.582C176.66 31.582 177.334 31.1572 177.334 30.0439V28.5938H177.231C176.938 29.2383 176.235 29.8828 174.961 29.8828C173.159 29.8828 171.724 28.623 171.724 25.9717C171.724 23.2764 173.203 21.9434 174.961 21.9434C176.294 21.9434 176.938 22.7344 177.231 23.3789H177.319V22.0459H179.473V30.0879C179.473 32.1094 177.861 33.1494 175.605 33.1494ZM175.635 28.2568C176.719 28.2568 177.334 27.4072 177.334 26.001C177.334 24.5801 176.719 23.6719 175.635 23.6719C174.536 23.6719 173.95 24.624 173.95 26.001C173.95 27.3779 174.536 28.2568 175.635 28.2568ZM183.325 19.3945V30H181.157V19.3945H183.325ZM188.613 30.1611C186.182 30.1611 184.688 28.5791 184.688 26.0596C184.688 23.5986 186.196 21.9434 188.525 21.9434C190.62 21.9434 192.261 23.2617 192.261 25.9717V26.5869H186.826C186.826 27.7881 187.544 28.5352 188.657 28.5352C189.39 28.5352 189.917 28.2129 190.137 27.7295H192.202C191.895 29.1943 190.576 30.1611 188.613 30.1611ZM186.826 25.2246H190.21C190.21 24.2578 189.536 23.5693 188.569 23.5693C187.573 23.5693 186.863 24.3091 186.826 25.2246ZM208.828 28.3301V29.8682H196.626V28.3301H201.768V26.3232H198.032V21.8408H205.576V20.376H198.018V18.8818H207.422V23.3057H199.907V24.7998H207.729V26.3232H203.628V28.3301H208.828ZM220.254 19.248V20.8447C220.254 22.6758 220.254 24.4922 219.771 27.2461L217.881 27.085C218.379 24.5215 218.379 22.6172 218.394 20.8447V20.7422H210.85V19.248H220.254ZM221.748 28.0664V29.6045H209.59V28.0664H221.748ZM233.716 18.0322V27.6123H231.841V18.0322H233.716ZM234.067 29.6191V31.1133H224.78V26.6455H226.67V29.6191H234.067ZM226.406 18.8818C228.457 18.8818 230.054 20.2881 230.054 22.2363C230.054 24.2285 228.457 25.6201 226.406 25.6201C224.355 25.6201 222.759 24.2285 222.759 22.2363C222.759 20.2881 224.355 18.8818 226.406 18.8818ZM226.406 20.5078C225.366 20.4932 224.575 21.1523 224.59 22.2363C224.575 23.3496 225.366 23.9941 226.406 23.9941C227.417 23.9941 228.208 23.3496 228.208 22.2363C228.208 21.1523 227.417 20.4932 226.406 20.5078Z" fill="#212A39"/>
</svg>
