<svg width="18" height="18" viewBox="0 0 18 18" fill="none" xmlns="http://www.w3.org/2000/svg">
<path opacity="0.987" fill-rule="evenodd" clip-rule="evenodd" d="M8.11003 1.19334C8.92566 1.10222 9.40828 1.10222 10.2847 1.19334C11.836 1.42295 13.274 2.14001 14.3909 3.24084C13.6362 3.95425 12.8913 4.67807 12.1567 5.41209C10.7497 4.21959 9.17916 3.94434 7.44516 4.58634C6.17316 5.17134 5.28741 6.11934 4.78791 7.43034C3.97165 6.82265 3.16603 6.20081 2.37141 5.56509C2.31618 5.53603 2.25311 5.52538 2.19141 5.53472C3.45366 3.10097 5.42616 1.65347 8.10891 1.19222" fill="#F44336"/>
<path opacity="0.997" fill-rule="evenodd" clip-rule="evenodd" d="M2.18953 5.53484C2.25328 5.52509 2.31366 5.53521 2.37066 5.56521C3.16528 6.20093 3.9709 6.82277 4.78716 7.43046C4.65871 7.94128 4.57774 8.46287 4.54528 8.98859C4.57303 9.49709 4.65366 9.99621 4.78716 10.486L2.25028 12.5053C1.14553 10.1968 1.12528 7.87334 2.18953 5.53484Z" fill="#FFC107"/>
<path opacity="0.999" fill-rule="evenodd" clip-rule="evenodd" d="M14.2711 14.9506C13.4812 14.254 12.6542 13.6005 11.7938 12.9931C12.6563 12.3841 13.1798 11.5486 13.3643 10.4866H9.1377V7.55147C11.5752 7.53122 14.0116 7.55184 16.4468 7.61334C16.9088 10.1221 16.3752 12.3841 14.8459 14.3993C14.6641 14.5926 14.4715 14.7766 14.2711 14.9506Z" fill="#448AFF"/>
<path opacity="0.993" fill-rule="evenodd" clip-rule="evenodd" d="M4.78688 10.4873C5.70938 12.7801 7.40063 13.8503 9.86063 13.6981C10.5512 13.6181 11.2133 13.3769 11.7934 12.9938C12.6544 13.6028 13.4801 14.2553 14.2706 14.9513C13.0181 16.0768 11.4211 16.7446 9.74025 16.8458C9.35836 16.8763 8.97464 16.8763 8.59275 16.8458C5.72925 16.5083 3.615 15.0616 2.25 12.5056L4.78688 10.4873Z" fill="#43A047"/>
</svg>
