<svg width="350" height="50" viewBox="0 0 350 50" fill="none" xmlns="http://www.w3.org/2000/svg">
<rect width="350" height="50" rx="14" fill="#FEE100"/>
<path d="M122.5 16.7676C126.918 16.7676 130.5 20.3493 130.5 24.7676C130.5 29.1859 126.918 32.7676 122.5 32.7676C121.419 32.7676 120.39 32.5514 119.449 32.1631L115.349 33.2334L115.805 29.1445C114.981 27.8867 114.5 26.3836 114.5 24.7676C114.5 20.3493 118.082 16.7676 122.5 16.7676Z" fill="#351C1C"/>
<path d="M147.854 19.292C147.839 23.4082 146.843 26.8359 141.862 29.3262L140.837 27.9199C143.063 26.814 144.389 25.5762 145.144 24.0967L141.203 24.4629L140.969 22.8662L145.715 22.5732C145.847 22.0166 145.942 21.416 145.993 20.7861H141.672V19.292H147.854ZM151.413 18.0176V23.1299H153.303V24.668H151.413V31.3184H149.538V18.0176H151.413ZM160.817 19.292C160.803 23.4082 159.807 26.8359 154.826 29.3262L153.801 27.9199C156.027 26.814 157.353 25.5762 158.107 24.0967L154.167 24.4629L153.933 22.8662L158.679 22.5732C158.811 22.0166 158.906 21.416 158.957 20.7861H154.636V19.292H160.817ZM164.377 18.0176V23.1299H166.267V24.668H164.377V31.3184H162.502V18.0176H164.377ZM172.902 18.7061C175.773 18.7061 177.912 20.1562 177.927 22.3535C177.912 24.3604 176.22 25.7153 173.825 25.9863V28.2568H179.025V29.7949H166.823V28.2568H171.965V25.9717C169.577 25.7153 167.893 24.353 167.893 22.3535C167.893 20.1562 170.031 18.7061 172.902 18.7061ZM172.902 20.2002C171.042 20.2002 169.738 21.0205 169.738 22.3535C169.738 23.7598 171.042 24.5508 172.902 24.5508C174.777 24.5508 176.066 23.7598 176.081 22.3535C176.066 21.0205 174.777 20.2002 172.902 20.2002ZM191.945 25.0928V26.5576H179.758V25.0928H184.914V24.1113H181.281V18.3105H190.524V19.7607H183.156V20.5078H190.217V21.8848H183.156V22.6904H190.642V24.1113H186.789V25.0928H191.945ZM190.451 27.3779V31.3477H188.562V28.8428H181.135V27.3779H190.451ZM208.41 28.3301V29.8682H196.208V28.3301H201.35V26.3232H197.614V21.8408H205.158V20.376H197.6V18.8818H207.004V23.3057H199.489V24.7998H207.312V26.3232H203.21V28.3301H208.41ZM219.836 19.248V20.8447C219.836 22.6758 219.836 24.4922 219.353 27.2461L217.463 27.085C217.961 24.5215 217.961 22.6172 217.976 20.8447V20.7422H210.432V19.248H219.836ZM221.33 28.0664V29.6045H209.172V28.0664H221.33ZM233.298 18.0322V27.6123H231.423V18.0322H233.298ZM233.649 29.6191V31.1133H224.362V26.6455H226.252V29.6191H233.649ZM225.988 18.8818C228.039 18.8818 229.636 20.2881 229.636 22.2363C229.636 24.2285 228.039 25.6201 225.988 25.6201C223.938 25.6201 222.341 24.2285 222.341 22.2363C222.341 20.2881 223.938 18.8818 225.988 18.8818ZM225.988 20.5078C224.948 20.4932 224.157 21.1523 224.172 22.2363C224.157 23.3496 224.948 23.9941 225.988 23.9941C226.999 23.9941 227.79 23.3496 227.79 22.2363C227.79 21.1523 226.999 20.4932 225.988 20.5078Z" fill="#351C1C"/>
</svg>
